# xmcd
#
# Track frame offsets:
#	150
#	27343
#	52594
#	72287
#	95323
#	118885
#	137363
#	161224
#	180798
#	201336
#
# Disc length: 2975 seconds
#
# Revision: 3
# Processed by: cddbd v1.5.2PL0 Copyright (c) Steve Scherf et al.
# Submitted via: EZCDAudioConverter 8.0.2.1
#
DISCID=7e0b9d0a
DTITLE=Hồng Trúc - 1. Tám Nẻo Đường Thành
DYEAR=1998
DGENRE=country
TTITLE0=Tám Nẻo Đường Thành
TTITLE1=Chuyến đò không em
TTITLE2=Ngày đá đơm bông
TTITLE3=Ngàn thu vĩnh biệt
TTITLE4=Lẻ bóng
TTITLE5=Trang nhật ký
TTITLE6=Cô lái đò Bến Hạ
TTITLE7=Mùa ve sầu
TTITLE8=Những người vượt gian khổ
TTITLE9=Thiệp hồng anh viết tên em
EXTD=
EXTT0=
EXTT1=
EXTT2=
EXTT3=
EXTT4=
EXTT5=
EXTT6=
EXTT7=
EXTT8=
EXTT9=
PLAYORDER=
